# xmcd
#
# Track frame offsets: 
#        150
#        13375
#        33120
#        48437
#        66492
#        85292
#        108652
#        127365
#        142497
#        160292
#
# Disc length: 2343 seconds
#
# Revision: 0
# Processed by: cddbd v1.4PL0 Copyright (c) Steve Scherf et al.
# Submitted via: ExactAudioCopy v0.90a11
#
DISCID=9d09250a
DTITLE=Bruce Channel - Stand Up
DYEAR=1900
DGENRE=
TTITLE0=Stand up
TTITLE1=Oughta be a law
TTITLE2=Hootchie chile
TTITLE3=Find a little grace
TTITLE4=Going Down
TTITLE5=Black widow's room
TTITLE6=Friends
TTITLE7=Keep on rolling
TTITLE8=Lucinda
TTITLE9=My babe
EXTD=
EXTT0=
EXTT1=
EXTT2=
EXTT3=
EXTT4=
EXTT5=
EXTT6=
EXTT7=
EXTT8=
EXTT9=
PLAYORDER=
